<mxfile host="app.diagrams.net" agent="Mozilla/5.0 (Macintosh; Intel Mac OS X 10_15_7) AppleWebKit/537.36 (KHTML, like Gecko) Chrome/132.0.0.0 Safari/537.36" version="26.0.14">
  <diagram name="Page-1" id="929967ad-93f9-6ef4-fab6-5d389245f69c">
    <mxGraphModel dx="954" dy="639" grid="1" gridSize="10" guides="1" tooltips="1" connect="1" arrows="1" fold="1" page="1" pageScale="1.5" pageWidth="1169" pageHeight="826" background="none" math="0" shadow="0">
      <root>
        <mxCell id="0" style=";html=1;" />
        <mxCell id="1" style=";html=1;" parent="0" />
        <mxCell id="1672d66443f91eb5-1" value="&lt;p style=&quot;margin: 0px ; margin-top: 4px ; margin-left: 10px ; text-align: left&quot;&gt;&lt;b&gt;Global Packages&lt;/b&gt;&lt;/p&gt;" style="html=1;strokeWidth=1;shape=mxgraph.sysml.package;html=1;overflow=fill;whiteSpace=wrap;fillColor=#dae8fc;fontSize=12;align=center;labelX=327.64;strokeColor=#6c8ebf;" parent="1" vertex="1">
          <mxGeometry x="300" y="320" width="785" height="500" as="geometry" />
        </mxCell>
        <mxCell id="a-KvQM7AsemI5AxW7bN--2" value="&lt;p style=&quot;margin: 0px ; margin-top: 4px ; margin-left: 10px ; text-align: left&quot;&gt;&lt;b&gt;View&lt;/b&gt;&lt;/p&gt;" style="html=1;strokeWidth=1;shape=mxgraph.sysml.package;html=1;overflow=fill;whiteSpace=wrap;fillColor=#dae8fc;fontSize=12;align=center;labelX=327.64;strokeColor=#6c8ebf;" vertex="1" parent="1">
          <mxGeometry x="640" y="360" width="400" height="340" as="geometry" />
        </mxCell>
        <mxCell id="rpGsWSdBKoxRbKyVbrdc-1" value="Destination UI" style="shape=folder;fontStyle=1;tabWidth=40;tabHeight=20;tabPosition=left;html=1;boundedLbl=1;whiteSpace=wrap;" parent="1" vertex="1">
          <mxGeometry x="675" y="390" width="150" height="60" as="geometry" />
        </mxCell>
        <mxCell id="BwXxmNjcSqASfWeSy7sL-2" style="edgeStyle=orthogonalEdgeStyle;shape=connector;rounded=0;orthogonalLoop=1;jettySize=auto;html=1;dashed=1;strokeColor=default;align=center;verticalAlign=middle;fontFamily=Helvetica;fontSize=11;fontColor=default;labelBackgroundColor=default;endArrow=classic;" parent="1" source="rpGsWSdBKoxRbKyVbrdc-2" target="BwXxmNjcSqASfWeSy7sL-1" edge="1">
          <mxGeometry relative="1" as="geometry" />
        </mxCell>
        <mxCell id="BwXxmNjcSqASfWeSy7sL-3" value="Imports" style="edgeLabel;html=1;align=center;verticalAlign=middle;resizable=0;points=[];fontFamily=Helvetica;fontSize=11;fontColor=default;labelBackgroundColor=default;" parent="BwXxmNjcSqASfWeSy7sL-2" vertex="1" connectable="0">
          <mxGeometry x="0.1667" y="3" relative="1" as="geometry">
            <mxPoint as="offset" />
          </mxGeometry>
        </mxCell>
        <mxCell id="BwXxmNjcSqASfWeSy7sL-4" style="edgeStyle=orthogonalEdgeStyle;shape=connector;rounded=0;orthogonalLoop=1;jettySize=auto;html=1;dashed=1;strokeColor=default;align=center;verticalAlign=middle;fontFamily=Helvetica;fontSize=11;fontColor=default;labelBackgroundColor=default;endArrow=classic;" parent="1" source="rpGsWSdBKoxRbKyVbrdc-2" target="rpGsWSdBKoxRbKyVbrdc-1" edge="1">
          <mxGeometry relative="1" as="geometry" />
        </mxCell>
        <mxCell id="BwXxmNjcSqASfWeSy7sL-5" value="Uses" style="edgeLabel;html=1;align=center;verticalAlign=middle;resizable=0;points=[];fontFamily=Helvetica;fontSize=11;fontColor=default;labelBackgroundColor=default;" parent="BwXxmNjcSqASfWeSy7sL-4" vertex="1" connectable="0">
          <mxGeometry x="-0.2364" y="2" relative="1" as="geometry">
            <mxPoint as="offset" />
          </mxGeometry>
        </mxCell>
        <mxCell id="BwXxmNjcSqASfWeSy7sL-7" style="edgeStyle=orthogonalEdgeStyle;shape=connector;rounded=0;orthogonalLoop=1;jettySize=auto;html=1;dashed=1;strokeColor=default;align=center;verticalAlign=middle;fontFamily=Helvetica;fontSize=11;fontColor=default;labelBackgroundColor=default;endArrow=classic;entryX=0.52;entryY=0.4;entryDx=0;entryDy=0;entryPerimeter=0;" parent="1" source="rpGsWSdBKoxRbKyVbrdc-2" target="BwXxmNjcSqASfWeSy7sL-6" edge="1">
          <mxGeometry relative="1" as="geometry" />
        </mxCell>
        <mxCell id="BwXxmNjcSqASfWeSy7sL-8" value="Imports" style="edgeLabel;html=1;align=center;verticalAlign=middle;resizable=0;points=[];fontFamily=Helvetica;fontSize=11;fontColor=default;labelBackgroundColor=default;" parent="BwXxmNjcSqASfWeSy7sL-7" vertex="1" connectable="0">
          <mxGeometry x="0.0233" y="-1" relative="1" as="geometry">
            <mxPoint as="offset" />
          </mxGeometry>
        </mxCell>
        <mxCell id="rpGsWSdBKoxRbKyVbrdc-2" value="TravelMain UI" style="shape=folder;fontStyle=1;tabWidth=40;tabHeight=20;tabPosition=left;html=1;boundedLbl=1;whiteSpace=wrap;" parent="1" vertex="1">
          <mxGeometry x="700" y="510" width="100" height="60" as="geometry" />
        </mxCell>
        <mxCell id="BwXxmNjcSqASfWeSy7sL-1" value="MyTrips" style="shape=folder;fontStyle=1;tabWidth=40;tabHeight=20;tabPosition=left;html=1;boundedLbl=1;whiteSpace=wrap;" parent="1" vertex="1">
          <mxGeometry x="900" y="510" width="100" height="60" as="geometry" />
        </mxCell>
        <mxCell id="BwXxmNjcSqASfWeSy7sL-6" value="Utilities" style="shape=folder;fontStyle=1;tabWidth=40;tabHeight=20;tabPosition=left;html=1;boundedLbl=1;whiteSpace=wrap;" parent="1" vertex="1">
          <mxGeometry x="700" y="630" width="100" height="60" as="geometry" />
        </mxCell>
        <mxCell id="a-KvQM7AsemI5AxW7bN--3" value="&lt;p style=&quot;margin: 0px ; margin-top: 4px ; margin-left: 10px ; text-align: left&quot;&gt;&lt;b&gt;Server&lt;/b&gt;&lt;/p&gt;" style="html=1;strokeWidth=1;shape=mxgraph.sysml.package;html=1;overflow=fill;whiteSpace=wrap;fillColor=#dae8fc;fontSize=12;align=center;labelX=327.64;strokeColor=#6c8ebf;" vertex="1" parent="1">
          <mxGeometry x="340" y="360" width="270" height="430" as="geometry" />
        </mxCell>
        <mxCell id="a-KvQM7AsemI5AxW7bN--4" value="Schemas" style="shape=folder;fontStyle=1;tabWidth=40;tabHeight=20;tabPosition=left;html=1;boundedLbl=1;whiteSpace=wrap;" vertex="1" parent="1">
          <mxGeometry x="390" y="440" width="100" height="60" as="geometry" />
        </mxCell>
        <mxCell id="a-KvQM7AsemI5AxW7bN--5" value="Utils" style="shape=folder;fontStyle=1;tabWidth=40;tabHeight=20;tabPosition=left;html=1;boundedLbl=1;whiteSpace=wrap;" vertex="1" parent="1">
          <mxGeometry x="490" y="620" width="80" height="60" as="geometry" />
        </mxCell>
        <mxCell id="a-KvQM7AsemI5AxW7bN--6" value="API" style="shape=folder;fontStyle=1;tabWidth=40;tabHeight=20;tabPosition=left;html=1;boundedLbl=1;whiteSpace=wrap;" vertex="1" parent="1">
          <mxGeometry x="370" y="620" width="80" height="60" as="geometry" />
        </mxCell>
        <mxCell id="a-KvQM7AsemI5AxW7bN--8" value="Test" style="shape=folder;fontStyle=1;tabWidth=40;tabHeight=20;tabPosition=left;html=1;boundedLbl=1;whiteSpace=wrap;" vertex="1" parent="1">
          <mxGeometry x="370" y="700" width="80" height="60" as="geometry" />
        </mxCell>
        <mxCell id="a-KvQM7AsemI5AxW7bN--10" value="&lt;p style=&quot;margin: 0px ; margin-top: 4px ; margin-left: 10px ; text-align: left&quot;&gt;&lt;b&gt;Database&lt;/b&gt;&lt;/p&gt;" style="html=1;strokeWidth=1;shape=mxgraph.sysml.package;html=1;overflow=fill;whiteSpace=wrap;fillColor=none;fontSize=12;align=center;labelX=327.64;strokeColor=#6c8ebf;" vertex="1" parent="1">
          <mxGeometry x="370" y="400" width="190" height="180" as="geometry" />
        </mxCell>
        <mxCell id="a-KvQM7AsemI5AxW7bN--11" value="Settings" style="shape=folder;fontStyle=1;tabWidth=40;tabHeight=20;tabPosition=left;html=1;boundedLbl=1;whiteSpace=wrap;" vertex="1" parent="1">
          <mxGeometry x="490" y="700" width="80" height="60" as="geometry" />
        </mxCell>
        <mxCell id="a-KvQM7AsemI5AxW7bN--12" value="Models" style="shape=folder;fontStyle=1;tabWidth=40;tabHeight=20;tabPosition=left;html=1;boundedLbl=1;whiteSpace=wrap;" vertex="1" parent="1">
          <mxGeometry x="390" y="510" width="100" height="60" as="geometry" />
        </mxCell>
      </root>
    </mxGraphModel>
  </diagram>
</mxfile>
